PathFileType	4	(X/Y/Z)	./resultDataOpenSim/trcMotMarkerGrf/sub06/qtm-13-03.trc
DataRate	CameraRate	NumFrames	NumMarkers	Units	OrigDataRate	OrigDataStartFrame	OrigNumFrames
250.000000	250.000000	9	24	m	250.000000	274	547
Frame#	Time	L.Toe.Tip			R.Toe.Tip			L.Ankle.Lat			R.Ankle.Lat			L.Ankle.Med			R.Ankle.Med			L.Heel			R.Heel			L.Knee.Lat			R.Knee.Lat			L.Knee.Med			R.Knee.Med			L.Thigh.Upper			R.Thigh.Upper			L.ASIS			R.ASIS			V.Sacral			L.Acromium			R.Acromium			C7			L.Elbow			R.Elbow			L.Wrist.Lat			R.Wrist.Lat
		X1	Y1	Z1	X2	Y2	Z2	X3	Y3	Z3	X4	Y4	Z4	X5	Y5	Z5	X6	Y6	Z6	X7	Y7	Z7	X8	Y8	Z8	X9	Y9	Z9	X10	Y10	Z10	X11	Y11	Z11	X12	Y12	Z12	X13	Y13	Z13	X14	Y14	Z14	X15	Y15	Z15	X16	Y16	Z16	X17	Y17	Z17	X18	Y18	Z18	X19	Y19	Z19	X20	Y20	Z20	X21	Y21	Z21	X22	Y22	Z22	X23	Y23	Z23	X24	Y24	Z24

274	1.092	0.10294142	-0.015853554	-0.057029545	0.85862937	0.12703684	0.10229476	0.0051666115	0.062234469	-0.086313491	0.72439097	0.09511749	0.12137038	0.014116283	0.078156071	-0.00065140642	0.73678669	0.12654779	0.036415789	-0.070967262	0.066486539	-0.038860164	0.68864042	0.052670431	0.058558732	0.19004013	0.38830756	-0.10448443	0.60369934	0.46533171	0.13093943	0.1872139	0.39261137	0.019518487	0.576016	0.43363751	0.0070612635	0.28628976	0.75751976	-0.16025268	0.38910391	0.76276355	0.18003845	0.37934664	0.8020791	-0.14182675	0.45037822	0.81638163	0.097723813	0.24089433	0.88135777	0.035517626	0.38707055	1.2940418	-0.18310284	0.38149448	1.2741855	0.17816243	0.30966732	1.3236593	-0.0048376851	0.44356963	0.97613355	-0.24891916	0.20741401	1.0197525	0.23766551	0.70593576	1.0161889	-0.18643865	0.20966258	0.80136922	0.33326069
275	1.096	0.10306194	-0.015850166	-0.057097012	0.86406014	0.12413978	0.10027948	0.0069165408	0.063530414	-0.086931946	0.72991292	0.092359351	0.11952198	0.015818411	0.079410269	-0.0013158137	0.74225633	0.12392468	0.034584696	-0.069234812	0.069067666	-0.039522631	0.6939595	0.050071645	0.056774866	0.19605998	0.38740458	-0.10502245	0.60999626	0.46313298	0.13002118	0.19364052	0.39135934	0.019130173	0.5830537	0.4326674	0.0061240799	0.29318748	0.75635994	-0.15981217	0.39724703	0.76148136	0.18048495	0.38641747	0.80108788	-0.14192025	0.45840588	0.81494372	0.097381395	0.24900908	0.87991419	0.036023144	0.39339614	1.2927951	-0.18267901	0.38856924	1.2727649	0.17868228	0.31646007	1.3223111	-0.0042428213	0.45123449	0.9750927	-0.24819972	0.21458377	1.0185004	0.23851539	0.71363082	1.0181115	-0.18547146	0.21623457	0.80039114	0.33450475
276	1.1	0.1032087	-0.015836271	-0.057154298	0.8690221	0.12097672	0.098157117	0.0087925086	0.064874465	-0.087580078	0.7349965	0.089466397	0.11769344	0.017690314	0.080720223	-0.0020287988	0.74714946	0.12107545	0.032704719	-0.067361111	0.07172683	-0.040211585	0.69871741	0.0473468	0.055086943	0.2021941	0.38649781	-0.10559788	0.61647336	0.46098849	0.12922096	0.20010288	0.39023012	0.01865921	0.59010798	0.43187144	0.0052511474	0.30018834	0.75519857	-0.15939057	0.40529686	0.76028188	0.18101423	0.39357575	0.80007451	-0.14199806	0.46645019	0.81356811	0.096999567	0.25726592	0.87847759	0.036414823	0.39976452	1.2915704	-0.18222481	0.39570084	1.2713511	0.17923344	0.32338373	1.3209507	-0.0037234983	0.45890817	0.97405096	-0.24746732	0.22174861	1.0172427	0.23941298	0.72123027	1.0198396	-0.18451663	0.22299749	0.79935314	0.33571446
277	1.104	0.10338282	-0.015812242	-0.057197226	0.87353737	0.11756532	0.09593717	0.010747167	0.06629907	-0.08826282	0.73965557	0.08644416	0.11588874	0.019721933	0.082088804	-0.0027844455	0.75148513	0.11800494	0.030788281	-0.065331455	0.074472983	-0.040915847	0.70295973	0.044477406	0.053477362	0.20845304	0.38558467	-0.1062079	0.62311474	0.45886278	0.12849839	0.20660606	0.38930637	0.017990101	0.59715467	0.43120331	0.0044376557	0.30729317	0.75403262	-0.15898635	0.41351187	0.75917729	0.18143366	0.40082139	0.79904413	-0.14205802	0.47451231	0.81225616	0.096589967	0.26542719	0.87710268	0.03689511	0.4061865	1.2903681	-0.18173744	0.40289335	1.2699468	0.17981891	0.33038301	1.3195886	-0.0031973024	0.46644071	0.97303697	-0.24664862	0.22896924	1.0159686	0.24033719	0.72873593	1.0213744	-0.18357099	0.2299518	0.79825214	0.33688741
278	1.108	0.10358131	-0.015783319	-0.057225682	0.87764515	0.11391581	0.093600519	0.012690999	0.067866141	-0.088982659	0.74390713	0.083293693	0.11411054	0.02190178	0.0835173	-0.0035587716	0.75534566	0.11474563	0.028874912	-0.063126824	0.077312243	-0.041624056	0.70673491	0.041444397	0.051928073	0.21485641	0.38465905	-0.10684636	0.62985878	0.45674448	0.12782606	0.21322561	0.3885365	0.017094171	0.60416734	0.43059424	0.0036825998	0.31449519	0.75286847	-0.15859929	0.42203187	0.7581683	0.18164665	0.40814574	0.7979988	-0.1420958	0.48260474	0.81100794	0.096170987	0.2733901	0.87580963	0.037540956	0.41266739	1.2891896	-0.18121422	0.4101423	1.2685537	0.18044214	0.33743136	1.3182303	-0.0026305722	0.47360457	0.97210522	-0.24566335	0.23636925	1.0146594	0.24125472	0.7361575	1.022726	-0.18264692	0.2371049	0.79708654	0.33802146
279	1.112	0.10380268	-0.015755809	-0.057242225	0.88137567	0.11005849	0.091137504	0.014569787	0.069614211	-0.089720178	0.74777851	0.079994655	0.11235801	0.024234544	0.085002622	-0.0043249941	0.75881841	0.11133666	0.027009307	-0.060732643	0.080240236	-0.04233134	0.71007589	0.038240171	0.050435816	0.22142467	0.38370969	-0.10750734	0.63666618	0.45463672	0.12718901	0.2200583	0.38773068	0.016099823	0.61115146	0.42996932	0.002985384	0.32178558	0.75171241	-0.15823639	0.43076323	0.75722639	0.18170421	0.41553435	0.79693451	-0.14210555	0.4907406	0.80982368	0.095758121	0.28122561	0.87457683	0.038269379	0.41920609	1.2880362	-0.18065317	0.41743474	1.2671727	0.18110484	0.34450388	1.3168793	-0.0020014469	0.4804919	0.97126568	-0.24458264	0.24397764	1.0133052	0.24214583	0.74350729	1.023909	-0.18175668	0.24446517	0.79585869	0.33911554
280	1.116	0.1040467	-0.015735223	-0.05725051	0.88473068	0.10604867	0.088571001	0.016461877	0.071483896	-0.090452295	0.75130378	0.076507717	0.11063248	0.026734084	0.086537563	-0.005077221	0.76194791	0.10779878	0.025215072	-0.058142278	0.083245566	-0.043034539	0.71295789	0.034919305	0.049033721	0.22817002	0.38272188	-0.10818976	0.64351118	0.45255228	0.12655457	0.22712931	0.38672372	0.015182993	0.61813312	0.42927727	0.0023248905	0.32915988	0.75055938	-0.15791172	0.43951749	0.75633363	0.18170838	0.4229775	0.79584898	-0.14208113	0.49893295	0.80870444	0.095363143	0.28905882	0.87336608	0.038956867	0.42579892	1.2869078	-0.18005095	0.4247608	1.2658074	0.18180486	0.35155456	1.3155432	-0.0012477761	0.48793643	0.97041978	-0.24380807	0.25169648	1.0119097	0.24301503	0.75079408	1.0249255	-0.18089875	0.25203798	0.79457419	0.34017293
281	1.12	0.10431035	-0.015728472	-0.057255328	0.88770032	0.10192825	0.085940752	0.018531932	0.073354327	-0.091181468	0.7545089	0.07281675	0.1089478	0.029417749	0.088115112	-0.0058358467	0.76473931	0.1041256	0.023471778	-0.055359484	0.08632447	-0.043714081	0.71528488	0.031681357	0.047789701	0.23509603	0.38168098	-0.10890088	0.65035585	0.45050904	0.12586498	0.23438511	0.38550596	0.01440298	0.62510902	0.42849516	0.0016541251	0.33661247	0.74939432	-0.15763914	0.44815249	0.75549081	0.18172779	0.43046808	0.79474675	-0.14201943	0.50718261	0.80764609	0.094993393	0.29696626	0.87214701	0.039534643	0.4324428	1.2858043	-0.17940445	0.4321207	1.2644635	0.18253766	0.35855743	1.3142255	-0.00032292292	0.49747968	0.9693399	-0.24404015	0.25943371	1.0104842	0.24387424	0.75801929	1.0257669	-0.18006383	0.25981997	0.79323809	0.34119948
282	1.124	0.10458912	-0.015744799	-0.057262867	0.89036081	0.097623371	0.083270323	0.02086926	0.075161818	-0.091924557	0.7574129	0.069013791	0.10733419	0.032305451	0.089723511	-0.0066294021	0.76724683	0.10032916	0.021714294	-0.052391574	0.089487607	-0.044332559	0.71700023	0.028898084	0.046736976	0.24220474	0.38057327	-0.10965217	0.65714563	0.44849768	0.1250692	0.24177815	0.38416366	0.013696092	0.63203636	0.4276037	0.00092165591	0.34413513	0.74819994	-0.15741966	0.45658934	0.75470685	0.18178989	0.43800555	0.79362991	-0.14192376	0.51545783	0.80663263	0.094650017	0.30493226	0.87091576	0.04001439	0.43913839	1.2847269	-0.17871278	0.4395142	1.2631455	0.18329815	0.36551943	1.3129277	0.00075338302	0.51016929	0.96778994	-0.24570335	0.26718121	1.0090375	0.24473205	0.76517868	1.0264297	-0.17924833	0.26779901	0.79185242	0.34219908
